<svg width="14" height="17" viewBox="0 0 14 17" fill="none" xmlns="http://www.w3.org/2000/svg">
<g clip-path="url(#clip0)">
<path d="M6.83969 8.16438C6.01402 8.16438 5.2069 7.92498 4.52038 7.47642C3.83386 7.02786 3.29879 6.39031 2.98282 5.64438C2.66685 4.89846 2.58418 4.07766 2.74526 3.28579C2.90634 2.49393 3.30393 1.76655 3.88777 1.19564C4.4716 0.62474 5.21546 0.235952 6.02526 0.0784398C6.83506 -0.0790726 7.67445 0.00176959 8.43726 0.310741C9.20008 0.619713 9.85207 1.14293 10.3108 1.81424C10.7695 2.48555 11.0143 3.27481 11.0143 4.08219C11.0132 5.1645 10.5729 6.20215 9.7903 6.96746C9.00766 7.73277 7.94651 8.16322 6.83969 8.16438ZM6.83969 1.31613C6.28022 1.31613 5.73332 1.47836 5.26814 1.7823C4.80296 2.08623 4.4404 2.51823 4.2263 3.02366C4.0122 3.5291 3.95618 4.08526 4.06533 4.62182C4.17448 5.15838 4.44389 5.65125 4.83949 6.03809C5.23509 6.42493 5.73912 6.68838 6.28784 6.79511C6.83655 6.90184 7.40531 6.84706 7.92219 6.6377C8.43907 6.42835 8.88086 6.07381 9.19168 5.61893C9.5025 5.16405 9.66841 4.62926 9.66841 4.08219C9.66722 3.34894 9.36882 2.64605 8.83859 2.12757C8.30836 1.60908 7.58955 1.31729 6.83969 1.31613Z" fill="black"/>
<path d="M14 17H0V16.342C0 12.3497 3.14052 9.10327 7.00112 9.10327C10.8617 9.10327 14 12.3497 14 16.342V17ZM1.38183 15.6839H12.6204C12.3064 12.727 9.9061 10.4194 7.00112 10.4194C4.09614 10.4194 1.69588 12.727 1.38183 15.6839Z" fill="black"/>
</g>
<defs>
<clipPath id="clip0">
<rect width="14" height="17" fill="white"/>
</clipPath>
</defs>
</svg>
