<svg width="213" height="143" viewBox="0 0 213 143" fill="none" xmlns="http://www.w3.org/2000/svg">
<g clip-path="url(#clip0)">
<path d="M33.3801 76.34C34.1902 74.317 34.499 72.1281 34.2801 69.96C34.0076 67.917 33.1498 65.9964 31.8101 64.43C29.0001 60.95 24.8801 58.77 21.0101 56.69C19.0101 55.6 16.9601 54.55 14.9401 53.47C12.9701 52.4604 11.1073 51.2543 9.38008 49.87C7.801 48.712 6.63404 47.079 6.05006 45.21C5.84774 44.2449 5.85649 43.2475 6.07569 42.2861C6.2949 41.3247 6.71941 40.422 7.32008 39.64C9.78008 36.37 14.3201 35.56 18.1501 35.95C20.1521 36.132 22.087 36.7644 23.8101 37.8C25.4671 38.8519 26.8625 40.2678 27.8901 41.94C28.4184 42.8016 28.8829 43.7006 29.2801 44.63C29.4143 44.9601 29.6678 45.2276 29.9901 45.3795C30.3124 45.5314 30.68 45.5566 31.0201 45.45L32.0201 44.98C32.1629 44.9328 32.2944 44.8563 32.406 44.7553C32.5175 44.6544 32.6068 44.5312 32.668 44.3938C32.7292 44.2563 32.761 44.1076 32.7613 43.9571C32.7617 43.8066 32.7306 43.6578 32.6701 43.52C31.9933 41.5372 30.9086 39.7182 29.4859 38.1801C28.0633 36.6421 26.3342 35.4191 24.4101 34.59C22.4959 33.8147 20.4706 33.3489 18.4101 33.21C16.1775 33.0078 13.928 33.102 11.7201 33.49C9.72538 33.791 7.82269 34.5322 6.15009 35.66C4.4775 36.7877 3.07694 38.2737 2.05006 40.01C1.04853 41.8224 0.523203 43.8593 0.523203 45.93C0.523203 48.0007 1.04853 50.0376 2.05006 51.85C4.35006 55.7 8.25006 58.03 12.0501 60.11C15.8501 62.19 20.2701 64.04 23.8301 66.83C25.4514 67.998 26.7432 69.5654 27.5801 71.38C28.3296 73.2026 28.3296 75.2474 27.5801 77.07C25.8601 80.92 21.1001 82.51 17.1901 82.54H17.1001C15.0394 82.5403 12.9995 82.1289 11.1001 81.33C9.23374 80.5126 7.56831 79.2976 6.22007 77.77C5.54354 76.9992 4.94714 76.1615 4.44007 75.27C4.15708 74.789 3.90328 74.2915 3.68006 73.78C3.49006 73.36 3.38008 72.84 2.95008 72.58C2.52008 72.32 2.23009 72.58 1.83009 72.77C1.43009 72.96 0.830063 73.11 0.430063 73.34C-0.419937 73.8 0.110063 74.82 0.430063 75.46C0.869197 76.4234 1.39116 77.3469 1.99006 78.22C4.37831 81.6155 7.99278 83.9498 12.0701 84.73C14.2756 85.1611 16.5271 85.309 18.7701 85.17C20.7765 85.0935 22.7625 84.7367 24.6701 84.11C26.5996 83.5262 28.3786 82.5285 29.8829 81.1866C31.3872 79.8446 32.5807 78.1906 33.3801 76.34Z" fill="#231F20"/>
<path d="M95.8601 47.63C93.3356 42.8398 89.3971 38.9432 84.5801 36.47C79.6577 33.9489 74.1158 32.8916 68.6109 33.4233C63.1061 33.955 57.869 36.0535 53.5201 39.47C49.2662 42.9113 46.2533 47.6484 44.9401 52.96C43.6609 58.3417 44.17 63.9935 46.3901 69.06C48.4632 73.7423 51.8456 77.7256 56.1301 80.53C60.6942 83.4799 66.0157 85.043 71.4501 85.03C72.8181 85.0351 74.1847 84.9449 75.5401 84.76C81.0239 84.0055 86.1479 81.5987 90.2301 77.86C94.2458 74.172 96.9962 69.3115 98.0901 63.97C99.2092 58.4277 98.4233 52.6698 95.8601 47.63ZM89.0101 67.01C88.2292 71.3949 86.1816 75.4552 83.1201 78.69C81.6159 80.1816 79.8363 81.3669 77.8801 82.18C75.8051 83 73.5911 83.4109 71.3601 83.39C70.2008 83.3972 69.0431 83.3035 67.9001 83.11C65.8122 82.7169 63.8223 81.9157 62.0446 80.7523C60.2668 79.5888 58.7361 78.0861 57.5401 76.33C55.0844 72.5412 53.6101 68.2008 53.2501 63.7C52.6737 58.9189 52.9753 54.0727 54.1401 49.4C55.1 45.119 57.4145 41.2616 60.7401 38.4C64.3035 35.6898 68.7685 34.4448 73.2201 34.92C75.3691 35.0788 77.4647 35.6648 79.3844 36.6435C81.3041 37.6222 83.0093 38.9741 84.4001 40.62C87.1345 44.0865 88.8641 48.2375 89.4001 52.62C90.1307 57.4015 89.9986 62.2752 89.0101 67.01Z" fill="#231F20"/>
<path d="M151.41 35.3401C151.411 35.0929 151.321 34.8539 151.157 34.6692C150.993 34.4845 150.766 34.3673 150.52 34.3401C150.17 34.3401 149.81 34.3401 149.46 34.3401C149.11 34.3401 148.87 34.7201 148.85 35.1401C148.78 36.5901 148.85 69.5001 148.85 70.6701C148.85 71.0501 147.98 71.3201 147.74 71.0501L114.94 34.7901C114.83 34.6528 114.692 34.5407 114.535 34.4613C114.378 34.382 114.206 34.3372 114.03 34.3301C113.09 34.3301 112.14 34.3301 111.2 34.3301C110.87 34.3301 110.82 34.9401 110.82 35.2301C110.82 37.1001 110.82 80.4701 110.82 82.5801C110.82 82.7101 110.82 82.8401 110.82 82.9701C110.817 83.2098 110.9 83.4426 111.054 83.6261C111.208 83.8097 111.423 83.9317 111.66 83.9701C112.08 83.9951 112.5 83.9951 112.92 83.9701C113.65 83.9701 113.5 82.8201 113.5 82.3101V44.7301C113.5 44.3601 114.37 44.0801 114.61 44.3601L150.11 84.6801L150.25 84.8401C150.46 85.0501 150.84 85.2801 151.14 85.1101C151.245 85.0268 151.328 84.92 151.384 84.7984C151.439 84.6768 151.465 84.5437 151.46 84.4101C151.46 84.1101 151.46 83.8101 151.46 83.5101C151.41 81.7901 151.43 35.5701 151.41 35.3401Z" fill="#231F20"/>
<path d="M212.54 59.8601C212.48 58.5801 211.3 58.7901 210.41 58.7901H196.41C196.307 58.7801 196.203 58.7801 196.1 58.7901C195.81 58.8701 195.7 59.2801 195.68 59.5501C195.68 60.2701 195.76 61.1701 196.68 61.2001C198.23 61.2001 202.68 61.2001 203.42 61.2001C203.774 61.1434 204.137 61.2059 204.452 61.3779C204.767 61.5498 205.016 61.8214 205.16 62.1501C205.225 62.4453 205.245 62.7488 205.22 63.0501V75.1601C205.22 76.1601 205.22 77.2301 205.22 78.2701C205.22 79.3101 204.56 79.6301 203.81 80.1101C202.419 80.9931 200.907 81.667 199.32 82.1101C196.058 82.9918 192.638 83.1184 189.32 82.4801C186.12 81.9158 183.088 80.6375 180.45 78.7401C177.931 76.8119 175.85 74.3724 174.341 71.582C172.833 68.7915 171.933 65.7134 171.7 62.5501C171.09 56.0801 172.38 49.1701 176.43 43.9501C178.465 41.4521 181.044 39.4512 183.969 38.0996C186.894 36.748 190.089 36.0812 193.31 36.1501C196.286 36.1202 199.209 36.9351 201.74 38.5001C204.208 40.1721 206.288 42.3546 207.84 44.9001C208.06 45.2501 208.28 45.6001 208.49 45.9501C208.686 46.3414 208.913 46.716 209.17 47.0701C209.57 47.5201 209.71 47.4101 210.11 47.1401C210.81 46.6801 212.11 46.1401 211.6 45.1401C211.38 44.7313 211.118 44.346 210.82 43.9901C210.57 43.6501 210.31 43.3101 210.05 42.9901C209.49 42.2901 208.91 41.6201 208.3 40.9901C204.764 37.2887 200.196 34.7379 195.19 33.6701C188.268 32.3628 181.108 33.6857 175.11 37.3801C169.279 41.0285 165.113 46.8208 163.51 53.5101C162.688 56.9783 162.62 60.5824 163.31 64.0791C164 67.5759 165.432 70.884 167.51 73.7801C171.638 79.3008 177.647 83.1152 184.4 84.5001C187.888 85.166 191.447 85.3844 194.99 85.1501C198.428 85.034 201.842 84.5377 205.17 83.6701C206.882 83.1932 208.554 82.5813 210.17 81.8401C210.62 81.6401 211.06 81.4201 211.5 81.2101C211.94 81.0001 212.36 80.8701 212.5 80.4501C212.551 80.3056 212.579 80.1535 212.58 80.0001C212.58 79.1401 212.58 78.2701 212.58 77.4101V66.7901C212.54 64.4801 212.64 62.1501 212.54 59.8601Z" fill="#231F20"/>
<path d="M95.16 15.34H89.99V0H95.16C99.58 0 103.38 2.89 103.38 7.67C103.38 12.45 99.58 15.34 95.16 15.34ZM94.73 3.2H93.57V12.2H94.73C97.39 12.2 99.65 10.71 99.65 7.71999C99.65 4.72999 97.39 3.2 94.73 3.2Z" fill="#231F20"/>
<path d="M118.44 15.34L114.3 9.33996H112.94V15.34H109.36V-4.12101e-05H115.08C115.718 -0.0452381 116.358 0.0410697 116.961 0.253545C117.565 0.466019 118.118 0.800129 118.587 1.23516C119.055 1.67019 119.43 2.19686 119.687 2.78254C119.944 3.36822 120.077 4.00043 120.08 4.63996C120.094 5.43851 119.88 6.22451 119.464 6.90622C119.048 7.58793 118.446 8.13721 117.73 8.48995L122.61 15.34H118.44ZM114.57 2.93995H112.94V6.37995H114.53C114.771 6.40602 115.016 6.38097 115.247 6.30642C115.478 6.23186 115.691 6.10948 115.871 5.94724C116.052 5.785 116.197 5.58653 116.296 5.36474C116.394 5.14295 116.446 4.9028 116.446 4.65995C116.446 4.41709 116.394 4.17696 116.296 3.95517C116.197 3.73338 116.052 3.5349 115.871 3.37265C115.691 3.21041 115.478 3.08803 115.247 3.01348C115.016 2.93893 114.771 2.91387 114.53 2.93995H114.57Z" fill="#231F20"/>
</g>
<path d="M137.704 119.414C137.826 119.562 137.984 119.674 138.163 119.741C138.342 119.808 138.536 119.826 138.724 119.794C145.233 118.709 150.147 115.965 151.665 113.014C153.488 115.965 158.478 118.676 164.737 119.783C164.928 119.823 165.127 119.808 165.309 119.739C165.492 119.67 165.651 119.549 165.767 119.392L166.288 118.503C166.592 118.036 166.288 117.472 165.615 117.418C159.877 116.561 153.509 114.099 153.509 109.944V109.803C153.485 109.576 153.372 109.369 153.195 109.225C153.019 109.08 152.793 109.012 152.566 109.033H150.906C150.679 109.012 150.453 109.08 150.276 109.225C150.1 109.369 149.987 109.576 149.962 109.803V109.944C149.962 114.131 144.094 116.539 137.834 117.451C137.194 117.537 136.858 118.112 137.184 118.535L137.704 119.414Z" fill="#231F20"/>
<path d="M165.8 123.536H154.377C154.019 123.536 153.726 123.536 153.726 123.167V120.369C153.726 120.116 153.626 119.873 153.447 119.694C153.268 119.515 153.025 119.414 152.772 119.414H150.602C150.476 119.413 150.352 119.436 150.235 119.484C150.119 119.531 150.013 119.602 149.924 119.69C149.835 119.779 149.765 119.885 149.717 120.002C149.67 120.118 149.646 120.243 149.648 120.369V123.167C149.648 123.525 149.355 123.536 148.997 123.536H137.661C137.5 123.536 137.345 123.6 137.231 123.714C137.117 123.828 137.053 123.983 137.053 124.144V124.871C137.056 125.03 137.122 125.181 137.235 125.293C137.349 125.405 137.502 125.467 137.661 125.467H165.8C165.959 125.467 166.112 125.405 166.226 125.293C166.339 125.181 166.404 125.03 166.407 124.871V124.144C166.407 123.983 166.343 123.828 166.229 123.714C166.115 123.6 165.961 123.536 165.8 123.536Z" fill="#231F20"/>
<path d="M159.584 129.622C156.731 128.016 152.5 127.539 148.736 128.027C146.368 128.276 144.115 129.178 142.228 130.631C141.513 131.222 140.95 131.976 140.584 132.828C140.218 133.681 140.06 134.608 140.123 135.534C140.095 136.757 140.439 137.96 141.11 138.983C141.719 139.828 142.499 140.534 143.399 141.055C145.067 142.01 146.913 142.612 148.823 142.824C149.982 142.967 151.149 143.021 152.316 142.986C156.167 142.889 159.725 141.739 161.645 139.732C162.63 138.707 163.188 137.346 163.207 135.924C163.332 134.55 163.017 133.171 162.307 131.987C161.608 130.986 160.673 130.174 159.584 129.622ZM151.611 141.077C146.643 141.077 143.909 138.55 143.909 135.425C143.909 132.301 146.643 129.774 151.611 129.774C156.579 129.774 159.313 132.301 159.313 135.425C159.313 138.55 156.579 141.077 151.611 141.077Z" fill="#231F20"/>
<path d="M64.8513 130.24H49.0354C48.9509 130.239 48.867 130.254 48.7887 130.286C48.7104 130.318 48.6392 130.365 48.5795 130.425C48.5198 130.484 48.4727 130.555 48.4411 130.634C48.4094 130.712 48.3939 130.796 48.3954 130.88V131.52C48.3939 131.605 48.4094 131.689 48.4411 131.767C48.4727 131.845 48.5198 131.916 48.5795 131.976C48.6392 132.036 48.7104 132.083 48.7887 132.115C48.867 132.146 48.9509 132.162 49.0354 132.16H61.738C63.025 132.163 64.2583 132.677 65.1674 133.588C66.0764 134.499 66.5869 135.733 66.5869 137.02V142.032C66.5869 142.288 66.6886 142.533 66.8697 142.714C67.0507 142.895 67.2963 142.997 67.5524 142.997H69.646C69.902 142.997 70.1476 142.895 70.3286 142.714C70.5097 142.533 70.6114 142.288 70.6114 142.032V136C70.6114 134.473 70.0045 133.008 68.9243 131.927C67.8441 130.847 66.379 130.24 64.8513 130.24Z" fill="#231F20"/>
<path d="M75.5363 117.082H71.0454C70.9638 117.083 70.8827 117.068 70.807 117.038C70.7313 117.007 70.6626 116.962 70.6049 116.904C70.5472 116.846 70.5017 116.778 70.4712 116.702C70.4406 116.626 70.4256 116.545 70.4271 116.463V109.955C70.4242 109.703 70.3228 109.461 70.1443 109.283C69.9659 109.105 69.7248 109.003 69.4725 109H67.4331C67.2119 108.995 66.9958 109.067 66.8216 109.203C66.6475 109.34 66.5262 109.533 66.4785 109.749V126.758C66.4785 127.485 66.9124 127.517 67.4331 127.517H69.4725C69.9931 127.517 70.4271 127.517 70.4271 126.964V119.631C70.4271 119.467 70.4922 119.31 70.6082 119.194C70.7242 119.078 70.8814 119.013 71.0454 119.013H75.5363C75.6946 119.013 75.8463 118.95 75.9582 118.838C76.0701 118.726 76.1329 118.574 76.1329 118.416V117.678C76.1329 117.52 76.0701 117.368 75.9582 117.257C75.8463 117.145 75.6946 117.082 75.5363 117.082Z" fill="#231F20"/>
<path d="M61.8573 125.099C61.995 125.063 62.115 124.978 62.1948 124.86C62.2747 124.742 62.3089 124.6 62.2912 124.458L62.1827 123.602C62.171 123.522 62.1432 123.445 62.101 123.376C62.0587 123.307 62.003 123.248 61.937 123.201C61.8711 123.154 61.7964 123.122 61.7174 123.105C61.6385 123.088 61.5569 123.087 61.4776 123.103C59.0116 123.662 56.5052 124.024 53.9819 124.187C51.3025 124.404 50.2394 122.636 50.2394 120.608V114.555C50.2394 114.215 50.3743 113.889 50.6143 113.649C50.8544 113.409 51.1799 113.275 51.5194 113.275H60.6423C60.7977 113.275 60.9467 113.213 61.0565 113.103C61.1664 112.993 61.2281 112.844 61.2281 112.689V111.951C61.2295 111.873 61.2155 111.796 61.1867 111.724C61.1579 111.651 61.115 111.585 61.0604 111.53C61.0059 111.474 60.9408 111.43 60.869 111.4C60.7972 111.37 60.7202 111.354 60.6423 111.354H49.6211C49.1695 111.354 48.7223 111.443 48.3051 111.616C47.8879 111.789 47.5089 112.042 47.1895 112.362C46.8702 112.681 46.6169 113.06 46.4441 113.477C46.2713 113.894 46.1824 114.342 46.1824 114.793V120.825C46.1835 121.541 46.3284 122.25 46.6084 122.91C46.8885 123.57 47.2981 124.167 47.8129 124.665C48.3277 125.164 48.9373 125.554 49.6056 125.813C50.274 126.072 50.9875 126.194 51.7038 126.172C55.1171 126.181 58.5213 125.821 61.8573 125.099Z" fill="#231F20"/>
<path d="M119.047 109H116.877C116.345 109 115.922 109.434 115.922 110.313V118.741C115.922 121.703 114.339 123.721 111.225 123.721H110.141C110.059 123.719 109.978 123.734 109.902 123.765C109.827 123.795 109.758 123.841 109.7 123.898C109.642 123.956 109.597 124.025 109.566 124.101C109.536 124.176 109.521 124.257 109.522 124.339V125.12C109.521 125.202 109.536 125.283 109.566 125.358C109.597 125.434 109.642 125.503 109.7 125.56C109.758 125.618 109.827 125.664 109.902 125.694C109.978 125.725 110.059 125.74 110.141 125.738H111.551C113.052 125.858 114.557 125.549 115.89 124.849V142.064C115.9 142.197 115.935 142.326 115.995 142.445C116.055 142.564 116.137 142.669 116.238 142.756C116.339 142.843 116.456 142.909 116.582 142.95C116.709 142.991 116.842 143.007 116.975 142.997H118.938C119.064 142.998 119.189 142.975 119.305 142.927C119.422 142.88 119.527 142.809 119.616 142.721C119.705 142.632 119.776 142.526 119.823 142.409C119.87 142.293 119.894 142.168 119.893 142.042V109.955C119.894 109.719 119.809 109.492 119.652 109.315C119.496 109.139 119.28 109.027 119.047 109Z" fill="#231F20"/>
<path d="M107.342 133.983C104.388 134.557 101.398 134.919 98.3925 135.067C95.7131 135.295 94.6501 133.527 94.6501 131.488V125.728H104.315C104.39 125.737 104.467 125.73 104.539 125.707C104.611 125.684 104.677 125.645 104.732 125.593C104.787 125.541 104.829 125.477 104.857 125.407C104.884 125.336 104.896 125.261 104.89 125.185V124.328C104.896 124.253 104.885 124.178 104.857 124.107C104.83 124.037 104.787 123.974 104.732 123.923C104.676 123.872 104.61 123.834 104.538 123.812C104.466 123.79 104.39 123.785 104.315 123.797H94.6501V115.65C94.6486 115.482 94.6804 115.316 94.7435 115.161C94.8067 115.006 94.8999 114.865 95.0179 114.746C95.1359 114.627 95.2764 114.532 95.4311 114.468C95.5858 114.403 95.7516 114.37 95.9192 114.37H106.507C106.663 114.37 106.813 114.309 106.925 114.199C107.036 114.09 107.1 113.941 107.103 113.784V113.047C107.103 112.888 107.04 112.737 106.928 112.625C106.817 112.513 106.665 112.45 106.507 112.45H94.0317C93.5792 112.45 93.1312 112.539 92.7133 112.713C92.2954 112.886 91.9158 113.14 91.5964 113.461C91.2769 113.781 91.0238 114.162 90.8516 114.58C90.6795 114.999 90.5916 115.447 90.593 115.9V131.705C90.6015 132.42 90.7513 133.126 91.0338 133.783C91.3163 134.44 91.7259 135.034 92.2391 135.533C92.7522 136.031 93.3588 136.422 94.0239 136.685C94.689 136.948 95.3995 137.076 96.1145 137.063C100.616 136.933 105.563 136.619 107.722 135.979C107.861 135.943 107.983 135.856 108.063 135.736C108.143 135.616 108.176 135.471 108.155 135.328L108.047 134.471C108.037 134.39 108.01 134.313 107.968 134.244C107.926 134.175 107.87 134.115 107.804 134.069C107.737 134.023 107.662 133.991 107.582 133.976C107.502 133.962 107.421 133.964 107.342 133.983Z" fill="#231F20"/>
<defs>
<clipPath id="clip0">
<rect width="212.58" height="129.96" fill="white"/>
</clipPath>
</defs>
</svg>
