<svg width="81" height="17" viewBox="0 0 81 17" fill="none" xmlns="http://www.w3.org/2000/svg">
<path d="M8 0L9.79611 5.87336L15.6085 5.87336L10.9062 9.50329L12.7023 15.3766L8 11.7467L3.29772 15.3766L5.09383 9.50329L0.391548 5.87336L6.20389 5.87336L8 0Z" fill="#607BB4"/>
<path d="M24 0L25.7961 5.87336L31.6085 5.87336L26.9062 9.50329L28.7023 15.3766L24 11.7467L19.2977 15.3766L21.0938 9.50329L16.3915 5.87336L22.2039 5.87336L24 0Z" fill="#607BB4"/>
<path d="M40.5 0L42.4084 5.87336L48.584 5.87336L43.5878 9.50329L45.4962 15.3766L40.5 11.7467L35.5038 15.3766L37.4122 9.50329L32.416 5.87336L38.5916 5.87336L40.5 0Z" fill="#607BB4"/>
<path d="M57 0L58.7961 5.87336L64.6085 5.87336L59.9062 9.50329L61.7023 15.3766L57 11.7467L52.2977 15.3766L54.0938 9.50329L49.3915 5.87336L55.2039 5.87336L57 0Z" fill="#607BB4"/>
<path d="M73 0L74.7961 5.87336L80.6085 5.87336L75.9062 9.50329L77.7023 15.3766L73 11.7467L68.2977 15.3766L70.0938 9.50329L65.3915 5.87336L71.2039 5.87336L73 0Z" fill="#607BB4"/>
</svg>
